:SAMPLES-PER-SECOND 30
:FRAME-RANGE 1-1770
:FULLY-SPECIFIED
:DEGREES
443
root  -36.2488 39.1782 -34.5529 4.96115 0.315401 1.61621
RightUpLeg  -2.127 -28.8512 -15.3315
RightLeg  14.2611 -14.4003 -0.874261
RightFoot  -7.73822 -0.593838 17.0775
RightToes  6.35937e-011 1.2921e-014 -6.02303e-014
Spine  5.84466 1.63725 6.65836
Spine1  -0.9734 3.16521 -6.48714
HEad  2.33361 10.1245 -4.65574
LeftShoulder1  0.965355 1.09182 -33.9392
LeftArm  -0.688534 22.9682 -24.6257
LeftForeArm  6.33007 -4.75146 -16.3348
LeftHand  0.367836 -0.914674 -6.71426
RightShoulder  9.81657 13.2224 51.3721
RightArm  30.9764 4.20013 20.3314
RightForeArm  10.9179 33.1556 6.73293
RightHand  0.32732 4.74303 3.44926
LeftUpLeg  -2.9868 16.7165 15.2136
LeftLeg  8.6848 19.4285 1.30818
LeftFoot  -4.07975 0.877503 -13.3959
LeftToes  3.18074e-010 1.39432e-010 -7.71186e-011
444
root  -37.3629 39.0949 -34.473 4.84369 -2.05648 0.658987
RightUpLeg  -4.00954 -27.5518 -11.9183
RightLeg  16.7612 -13.2675 -1.99549
RightFoot  -10.0061 -0.256341 16.0315
RightToes  6.35937e-011 1.2921e-014 -6.02303e-014
Spine  6.43856 1.50255 7.37678
Spine1  -0.795567 2.88408 -4.87224
HEad  1.526 12.1583 -5.33138
LeftShoulder1  0.943223 1.10015 -33.1649
LeftArm  -3.74916 23.0881 -26.9826
LeftForeArm  8.16587 -4.98727 -15.8448
LeftHand  0.359067 -1.10716 -6.3369
RightShoulder  10.4327 14.1691 51.6589
RightArm  32.6073 4.54359 21.2722
RightForeArm  11.9255 33.8374 6.85391
RightHand  0.367225 4.94234 3.81737
LeftUpLeg  -4.90697 14.1107 15.636
LeftLeg  12.8501 17.5989 4.74692
LeftFoot  -7.29669 0.319624 -7.8066
LeftToes  3.18074e-010 1.39432e-010 -7.71186e-011
445
root  -38.3155 39.024 -34.3307 4.272 -3.0802 0.368732
RightUpLeg  -4.21803 -25.4006 -10.1374
RightLeg  18.6469 -14.2388 -2.87998
RightFoot  -11.9906 0.00577727 15.3841
RightToes  6.35937e-011 1.2921e-014 -6.02303e-014
Spine  7.28881 0.988566 7.51577
Spine1  -0.294687 2.21511 -3.13909
HEad  0.741794 13.6132 -5.36218
LeftShoulder1  1.0197 0.856795 -32.4542
LeftArm  -2.83494 22.1641 -29.0412
LeftForeArm  7.47194 -6.39433 -15.4183
LeftHand  0.394244 -1.48758 -6.54157
RightShoulder  10.7936 14.5129 52.404
RightArm  34.365 4.80463 21.1468
RightForeArm  11.9104 34.2238 6.95812
RightHand  0.380959 4.96209 3.96245
LeftUpLeg  -7.68702 8.72734 14.9222
LeftLeg  18.5974 12.2507 4.87016
LeftFoot  -9.14548 0.096743 -2.18415
LeftToes  3.18074e-010 1.39432e-010 -7.71186e-011
446
root  -39.1339 38.9868 -34.0723 3.76828 -3.77714 0.344256
RightUpLeg  -3.47026 -22.8768 -9.24541
RightLeg  19.3683 -16.0233 -2.98851
RightFoot  -13.5157 0.192046 14.9017
RightToes  6.35937e-011 1.2921e-014 -6.02303e-014
Spine  8.12026 0.656054 8.11257
Spine1  -0.146447 1.86999 -2.22501
HEad  0.92875 14.18 -5.06412
LeftShoulder1  1.07628 0.690428 -32.1903
LeftArm  -0.266262 19.8918 -30.0296
LeftForeArm  8.81655 -7.54069 -15.0718
LeftHand  0.459812 -2.03981 -7.02744
RightShoulder  10.5629 14.0634 52.5941
RightArm  36.5085 4.56966 21.1761
RightForeArm  11.2291 33.1152 6.70417
RightHand  0.320608 5.03219 3.26084
LeftUpLeg  -10.9628 7.72776 13.099
LeftLeg  24.3946 4.33079 2.47184
LeftFoot  -10.8706 0.0852073 -4.8862
LeftToes  3.18074e-010 1.39432e-010 -7.71186e-011
447
root  -39.8852 39.044 -33.698 3.72003 -4.87781 0.929131
RightUpLeg  -2.5346 -19.509 -9.07735
RightLeg  18.7676 -18.4984 -2.40842
RightFoot  -14.4002 0.29195 14.5409
RightToes  6.35937e-011 1.2921e-014 -6.02303e-014
Spine  8.46753 0.795436 8.76073
Spine1  -0.417581 2.12659 -2.51209
HEad  1.76129 14.2943 -4.96731
LeftShoulder1  1.08191 0.660534 -31.9866
LeftArm  2.64811 17.7145 -30.3597
LeftForeArm  9.92344 -9.78651 -14.0713
LeftHand  0.557387 -2.76727 -7.72478
RightShoulder  10.1108 13.3057 52.6166
RightArm  39.0062 3.65409 21.0733
RightForeArm  8.95285 30.5841 6.19036
RightHand  0.266098 5.18293 2.60788
LeftUpLeg  -14.2991 7.99083 9.72356
LeftLeg  28.6211 0.825211 0.822905
LeftFoot  -11.6639 0.0510715 -6.65486
LeftToes  3.18074e-010 1.39432e-010 -7.71186e-011
448
root  -40.5992 39.1635 -33.243 4.00793 -6.38104 1.77194
RightUpLeg  -1.57355 -16.4998 -8.99651
RightLeg  17.038 -20.3194 -1.66252
RightFoot  -14.7416 0.319405 14.0821
RightToes  6.35937e-011 1.2921e-014 -6.02303e-014
Spine  8.45662 1.23649 9.33045
Spine1  -0.775724 2.70753 -3.58034
HEad  2.79313 14.5943 -5.38526
LeftShoulder1  1.06007 0.711807 -31.9023
LeftArm  7.08942 16.4342 -30.4626
LeftForeArm  5.55397 -14.0122 -11.7282
LeftHand  0.647178 -3.27295 -8.43272
RightShoulder  9.78734 12.8777 52.2771
RightArm  42.7804 2.4205 20.9253
RightForeArm  3.71599 26.8725 5.5887
RightHand  0.24325 5.166 2.36233
LeftUpLeg  -17.5588 9.2867 5.41842
LeftLeg  30.4801 1.86648 1.5264
LeftFoot  -11.3739 0.0662115 -6.60359
LeftToes  3.18074e-010 1.39432e-010 -7.71186e-011
449
root  -41.308 39.2718 -32.7292 4.36652 -7.79763 2.47214
RightUpLeg  -0.323289 -14.2059 -8.75389
RightLeg  14.7128 -21.5977 -0.768641
RightFoot  -14.9221 0.328471 13.7024
RightToes  6.35937e-011 1.2921e-014 -6.02303e-014
Spine  8.30323 1.68577 9.46548
Spine1  -0.965781 3.16895 -4.29753
HEad  3.36611 15.2947 -6.31548
LeftShoulder1  1.03627 0.772188 -31.8695
LeftArm  11.8922 15.8631 -30.3448
LeftForeArm  -0.853182 -18.5876 -8.29626
LeftHand  0.641663 -3.48062 -8.14736
RightShoulder  9.67029 12.8031 51.8989
RightArm  48.5923 1.58933 20.58
RightForeArm  -3.80622 22.4672 5.55922
RightHand  0.226988 5.24344 2.16323
LeftUpLeg  -20.5788 11.7391 0.929856
LeftLeg  30.0063 4.14198 2.92112
LeftFoot  -10.8263 0.0959779 -6.93047
LeftToes  3.18074e-010 1.39432e-010 -7.71186e-011
450
root  -42.0146 39.3608 -32.1689 4.53217 -8.96217 3.0347
RightUpLeg  1.49633 -12.7342 -8.45038
RightLeg  11.9163 -22.2013 0.248577
RightFoot  -14.9359 0.315405 13.2411
RightToes  6.35937e-011 1.2921e-014 -6.02303e-014
Spine  8.15669 1.99713 9.05484
Spine1  -0.788263 3.40965 -4.53652
HEad  3.08828 16.4032 -7.3525
LeftShoulder1  1.0169 0.819615 -31.8171
LeftArm  13.7772 15.3656 -29.7616
LeftForeArm  -3.2965 -22.014 -5.67201
LeftHand  0.549962 -3.53073 -6.90837
RightShoulder  9.75527 13.0035 51.7224
RightArm  43.0802 1.96675 19.4853
RightForeArm  1.03059 16.0847 11.2733
RightHand  0.242996 5.16509 2.35981
LeftUpLeg  -22.9627 14.488 -3.55751
LeftLeg  27.4256 5.70929 3.54181
LeftFoot  -10.3797 0.128685 -7.92492
LeftToes  3.18074e-010 1.39432e-010 -7.71186e-011
451
root  -42.6973 39.3781 -31.5513 4.67914 -9.95796 3.32631
RightUpLeg  3.39033 -11.9783 -7.93629
RightLeg  9.41641 -22.2133 1.04639
RightFoot  -15.1075 0.32063 12.8334
RightToes  6.35937e-011 1.2921e-014 -6.02303e-014
Spine  8.10462 2.15056 8.6196
Spine1  -0.678325 3.50593 -4.69312
HEad  2.68737 17.6397 -7.89618
LeftShoulder1  0.993171 0.876321 -31.7306
LeftArm  12.0417 14.6744 -28.6113
LeftForeArm  -1.02325 -24.1321 -5.21051
LeftHand  0.42792 -3.54041 -5.31649
RightShoulder  9.91416 13.2184 51.8839
RightArm  32.744 2.93873 17.8103
RightForeArm  9.97773 7.5924 16.5791
RightHand  0.300105 4.92374 3.07172
LeftUpLeg  -25.1198 17.4095 -7.85747
LeftLeg  23.7824 5.75251 3.09709
LeftFoot  -9.7853 0.175249 -8.58319
LeftToes  3.18074e-010 1.39432e-010 -7.71186e-011
452
root  -43.3594 39.3235 -30.8695 4.7598 -10.9278 3.40838
RightUpLeg  5.3867 -11.1471 -7.24086
RightLeg  7.17615 -22.3367 1.62799
RightFoot  -15.4186 0.344984 12.5956
RightToes  6.35937e-011 1.2921e-014 -6.02303e-014
Spine  8.00296 2.28023 8.15656
Spine1  -0.323843 3.61131 -4.79269
HEad  2.27178 18.9231 -8.31561
LeftShoulder1  0.992238 0.862743 -31.5005
LeftArm  10.4145 13.6231 -27.3836
LeftForeArm  0.969776 -25.3046 -5.37084
LeftHand  0.324617 -3.47473 -4.0086
RightShoulder  9.9985 13.3323 51.9685
RightArm  26.8616 3.63914 16.2203
RightForeArm  13.0851 0.814683 18.6223
RightHand  0.40208 4.50148 4.42481
LeftUpLeg  -26.9541 20.1253 -11.9186
LeftLeg  19.5221 5.21635 2.3755
LeftFoot  -8.90215 0.249154 -9.18801
LeftToes  3.18074e-010 1.39432e-010 -7.71186e-011
453
root  -44.0119 39.1982 -30.0995 4.81818 -11.9935 3.16319
RightUpLeg  7.41132 -10.2732 -6.33211
RightLeg  5.46242 -22.2313 2.04049
RightFoot  -15.9528 0.397975 12.5365
RightToes  6.35937e-011 1.2921e-014 -6.02303e-014
Spine  7.84504 2.41644 7.78204
Spine1  0.0851252 3.74463 -4.83295
HEad  1.83519 20.4547 -8.44482
LeftShoulder1  0.981198 0.873696 -31.2358
LeftArm  9.84853 12.2765 -26.1534
LeftForeArm  1.40456 -25.5908 -5.41305
LeftHand  0.26701 -3.41089 -3.28233
RightShoulder  9.9558 13.2633 51.96
RightArm  21.5738 3.78876 14.6909
RightForeArm  16.0006 -1.45455 18.668
RightHand  0.420397 3.97799 4.93545
LeftUpLeg  -27.9062 20.7516 -14.2516
LeftLeg  14.9399 6.08104 1.18222
LeftFoot  -7.84939 0.333942 -9.39965
LeftToes  3.18074e-010 1.39432e-010 -7.71186e-011
